<?xml version="1.0" encoding="UTF-8"?>
<svg version="1.1" xmlns="http://www.w3.org/2000/svg" width="256" height="256">
<path d="M0 0 C84.48 0 168.96 0 256 0 C256 84.48 256 168.96 256 256 C171.52 256 87.04 256 0 256 C0 171.52 0 87.04 0 0 Z " fill="#02082A" transform="translate(0,0)"/>
<path d="M0 0 C3 4.86206897 3 4.86206897 3 8 C3.50305664 7.83701416 4.00611328 7.67402832 4.52441406 7.50610352 C7.88724444 6.81861364 11.19362 6.87720121 14.609375 6.90234375 C15.33618469 6.9037587 16.06299438 6.90517365 16.81182861 6.90663147 C19.12459494 6.91221208 21.43726312 6.92476096 23.75 6.9375 C25.32161318 6.94251751 26.89322789 6.94707998 28.46484375 6.95117188 C32.30993343 6.96217515 36.1549501 6.97942639 40 7 C41.32 4.36 42.64 1.72 44 -1 C51.81257496 -0.22191835 58.97067058 1.78325146 66.375 4.3125 C67.65842285 4.73801147 67.65842285 4.73801147 68.96777344 5.17211914 C79.22569466 8.78730309 83.12297792 14.01692178 87.9375 23.5 C88.45820068 24.51739258 88.97890137 25.53478516 89.51538086 26.58300781 C97.30750301 42.2181256 102.62127464 58.54199985 104 76 C104.09522949 77.19560547 104.19045898 78.39121094 104.28857422 79.62304688 C104.51732524 82.97364948 104.68955814 86.31154884 104.79934692 89.66726685 C104.8734028 91.64484863 104.99659841 93.62039553 105.12084961 95.59545898 C105.26269842 104.58490694 105.26269842 104.58490694 101.74853516 108.52319336 C98.92584303 110.61827004 96.09686274 112.34177316 93 114 C91.95996826 114.63047241 91.95996826 114.63047241 90.89892578 115.27368164 C69.29643658 128.27566883 69.29643658 128.27566883 60 127 C57.6875 124 57.6875 124 56 121 C55.43925781 121.15855469 54.87851563 121.31710938 54.30078125 121.48046875 C48.78927424 122.72500259 43.09679067 122.99384927 38.0625 120.1875 C33.47826087 116.91304348 33.47826087 116.91304348 32 115 C32 114.34 32 113.68 32 113 C31.0884314 113.0314209 31.0884314 113.0314209 30.15844727 113.06347656 C13.77536298 113.55109591 -0.98909349 112.79280328 -16.01953125 105.63671875 C-18.42910808 104.86204217 -19.63521373 105.19371112 -22 106 C-23.33333333 106.33333333 -24.66666667 106.66666667 -26 107 C-25.13117188 106.9484375 -24.26234375 106.896875 -23.3671875 106.84375 C-19.66621574 107.01548883 -17.4353938 107.88517375 -14.125 109.5 C-13.15820312 109.9640625 -12.19140625 110.428125 -11.1953125 110.90625 C-10.47085938 111.2671875 -9.74640625 111.628125 -9 112 C-10.43308135 115.95906817 -12.33141949 119.28718181 -14.625 122.8125 C-15.25664063 123.78832031 -15.88828125 124.76414062 -16.5390625 125.76953125 C-17.02117187 126.50558594 -17.50328125 127.24164063 -18 128 C-31.22364328 124.597076 -43.50956335 118.29931043 -55 111 C-56.66869141 110.10474609 -56.66869141 110.10474609 -58.37109375 109.19140625 C-60.68017406 107.183295 -60.99826014 106.00996741 -61.53393555 102.94116211 C-61.74266913 98.94136101 -61.73322802 95.00125201 -61.625 91 C-61.61413361 90.28236481 -61.60326721 89.56472961 -61.59207153 88.8253479 C-61.22632671 64.73085799 -55.37613718 43.98700633 -44.375 22.625 C-43.91988037 21.73876953 -43.46476074 20.85253906 -42.99584961 19.93945312 C-37.60182409 9.82968687 -31.76348102 6.45370263 -21 3 C-18.17932386 2.15584639 -15.34811922 1.37108447 -12.5 0.625 C-11.8299292 0.44509521 -11.1598584 0.26519043 -10.46948242 0.07983398 C-6.6890923 -0.85300192 -3.70542944 -1.35663264 0 0 Z " fill="#5064F3" transform="translate(101,67)"/>
<path d="M0 0 C2.97 0.495 2.97 0.495 6 1 C5.67 1.99 5.34 2.98 5 4 C4.01 4 3.02 4 2 4 C2 5.65 2 7.3 2 9 C3.98 8.67 5.96 8.34 8 8 C8 7.01 8 6.02 8 5 C9.725227 4.32320342 11.45538939 3.65898 13.1875 3 C14.63189453 2.443125 14.63189453 2.443125 16.10546875 1.875 C18.92182358 1.02363228 21.08164439 0.82927353 24 1 C24 1.99 24 2.98 24 4 C24.86625 3.4740625 24.86625 3.4740625 25.75 2.9375 C28 2 28 2 30.0625 2.125 C32.65382863 3.29527745 33.64912903 4.51155347 35 7 C34.6875 9.25 34.6875 9.25 34 11 C33.01 10.67 32.02 10.34 31 10 C30.3125 7.9375 30.3125 7.9375 30 6 C30 7.32 30 8.64 30 10 C30 11.32 30 12.64 30 14 C28.68 14 27.36 14 26 14 C26 14.66 26 15.32 26 16 C26.66 16.33 27.32 16.66 28 17 C27.34 17 26.68 17 26 17 C26.99 18.32 27.98 19.64 29 21 C29.66 20.01 30.32 19.02 31 18 C30.34 17.67 29.68 17.34 29 17 C30.32 17 31.64 17 33 17 C33.226875 16.4225 33.45375 15.845 33.6875 15.25 C35.60852921 11.95680706 38.18325783 9.57390809 41.8671875 8.41015625 C47.7221312 7.28420554 53.1091456 7.04832102 58.375 10.125 C62.74924026 13.23557085 65.30235654 16.90706963 67 22 C67.76367027 28.4598993 66.83738737 32.77965809 63 38 C62.60296875 38.57105469 62.2059375 39.14210937 61.796875 39.73046875 C60.03545951 42.0771647 58.56588413 43.77364635 55.8125 44.875 C54.884375 44.91625 53.95625 44.9575 53 45 C52.24332031 45.06058594 51.48664063 45.12117188 50.70703125 45.18359375 C43.51440096 45.54268119 39.61351921 44.03069353 34.0625 39.375 C33 38 33 38 33 36 C32.3922876 36.02094727 31.7845752 36.04189453 31.15844727 36.06347656 C15.76091857 36.52176224 1.82365944 36.02334019 -12.4375 29.6875 C-16.87092276 27.71793483 -20.25015487 27.95493398 -24.96875 28.8359375 C-25.6390625 28.89007813 -26.309375 28.94421875 -27 29 C-27.66 28.34 -28.32 27.68 -29 27 C-27.948125 26.443125 -26.89625 25.88625 -25.8125 25.3125 C-22.26046527 23.2982364 -19.75086314 21.0009416 -17 18 C-16.34 18.99 -15.68 19.98 -15 21 C-12.47305748 21.44144243 -12.47305748 21.44144243 -9.625 21.3125 C-8.66851562 21.30863281 -7.71203125 21.30476563 -6.7265625 21.30078125 C-4.00907193 21.00100077 -2.32988821 20.38578659 0 19 C-0.33 18.34 -0.66 17.68 -1 17 C-0.236875 16.95875 0.52625 16.9175 1.3125 16.875 C4.32405113 16.22176391 4.32405113 16.22176391 5.8125 12.9375 C6.4003125 11.4834375 6.4003125 11.4834375 7 10 C6.13375 10.33 5.2675 10.66 4.375 11 C1.04281725 11.98731341 -1.55159538 12.16420974 -5 12 C-4.34 11.67 -3.68 11.34 -3 11 C-2.67 10.01 -2.34 9.02 -2 8 C-1.34 8 -0.68 8 0 8 C0 5.36 0 2.72 0 0 Z " fill="#5063ED" transform="translate(100,144)"/>
<path d="M0 0 C16.17 0 32.34 0 49 0 C49 21.45 49 42.9 49 65 C43.06 65.99 43.06 65.99 37 67 C33.44687147 69.24907905 33.44687147 69.24907905 31 72 C30.13375 72.7734375 30.13375 72.7734375 29.25 73.5625 C27.78724044 75.24467349 26.90886907 76.97252285 26 79 C24.5 77.8125 24.5 77.8125 23 76 C22.8125 73.3125 22.8125 73.3125 23 71 C24.32 71 25.64 71 27 71 C26.34 68.69 25.68 66.38 25 64 C25.99 63.34 26.98 62.68 28 62 C28.33 63.65 28.66 65.3 29 67 C29.66 67 30.32 67 31 67 C30.67 64.69 30.34 62.38 30 60 C35.05791498 57.31298267 36.48236801 58.185296 43 59 C43 49.1 43 39.2 43 29 C30.79 29 18.58 29 6 29 C5.67 35.27 5.34 41.54 5 48 C3.35 48.66 1.7 49.32 0 50 C0 33.5 0 17 0 0 Z " fill="#F8F9FD" transform="translate(103,87)"/>
<path d="M0 0 C2.26421529 1.59773256 3.73089464 2.95641923 5.5 5.125 C7.39490019 6.96522722 7.39490019 6.96522722 9.625 6.73828125 C11.20978335 6.53757678 12.79106081 6.30696191 14.3671875 6.046875 C16.95876818 5.69641213 19.05964883 6.02336579 21.5625 6.75 C21.76336443 10.46599191 21.7144437 11.52208445 19.5625 14.75 C22.8625 14.42 26.1625 14.09 29.5625 13.75 C28.38676513 18.15900576 27.50579225 20.38402465 23.5625 22.75 C22.881875 23.306875 22.20125 23.86375 21.5 24.4375 C17.04445392 26.42827591 12.36792163 26.50875078 7.5625 25.75 C5.7265625 24.2265625 5.7265625 24.2265625 4.5625 22.75 C3.9025 23.6575 3.2425 24.565 2.5625 25.5 C-1.12826517 29.86275323 -5.25721664 32.26149253 -10.9296875 33.1328125 C-16.94925623 33.40726092 -20.53138176 32.19472132 -25.4375 28.75 C-25.7675 28.42 -26.0975 28.09 -26.4375 27.75 C-27.95219448 27.51807135 -29.47504562 27.33784762 -31 27.1875 C-31.82628906 27.10371094 -32.65257812 27.01992187 -33.50390625 26.93359375 C-34.46103516 26.84271484 -34.46103516 26.84271484 -35.4375 26.75 C-35.293125 26.110625 -35.14875 25.47125 -35 24.8125 C-34.39670991 21.93726875 -34.39670991 21.93726875 -34.359375 19.73046875 C-34.03647706 13.14565715 -31.85137906 8.64798193 -27.4375 3.75 C-19.8163591 -2.39372203 -8.88068094 -5.43171105 0 0 Z " fill="#D0D2D4" transform="translate(77.4375,140.25)"/>
<path d="M0 0 C12.21 0 24.42 0 37 0 C37 9.9 37 19.8 37 30 C34.36 30 31.72 30 29 30 C26.99617991 30.65509503 24.99541868 31.31974363 23 32 C20.875 31.5625 20.875 31.5625 19 31 C16.81296615 31.37907282 16.81296615 31.37907282 15 32 C15 31.01 15 30.02 15 29 C14.18015625 29.20496094 13.3603125 29.40992188 12.515625 29.62109375 C11.43796875 29.89050781 10.3603125 30.15992188 9.25 30.4375 C8.18265625 30.70433594 7.1153125 30.97117188 6.015625 31.24609375 C4.21354167 31.69661458 2.41145833 32.14713542 0.609375 32.59765625 C-0.18726563 32.79681641 -0.18726563 32.79681641 -1 33 C-1 33.99 -1 34.98 -1 36 C-3.97 36.495 -3.97 36.495 -7 37 C-7 35.35 -7 33.7 -7 32 C-6.01 31.67 -5.02 31.34 -4 31 C-3.67 30.34 -3.34 29.68 -3 29 C-4.98 28.67 -6.96 28.34 -9 28 C-9 30.64 -9 33.28 -9 36 C-9.33 36 -9.66 36 -10 36 C-10 34.35 -10 32.7 -10 31 C-11.65 31 -13.3 31 -15 31 C-15 30.34 -15 29.68 -15 29 C-16.98 28.67 -18.96 28.34 -21 28 C-17.44221823 24.94654296 -13.56942569 23.46596636 -9.25 21.8125 C-8.20392578 21.40354492 -8.20392578 21.40354492 -7.13671875 20.98632812 C-5.42662746 20.31868975 -3.71359846 19.65858448 -2 19 C-1.90912109 17.57107422 -1.90912109 17.57107422 -1.81640625 16.11328125 C-1.73261719 14.85902344 -1.64882812 13.60476562 -1.5625 12.3125 C-1.48128906 11.07113281 -1.40007812 9.82976562 -1.31640625 8.55078125 C-1 5 -1 5 0 0 Z " fill="#4F62ED" transform="translate(109,116)"/>
<path d="M0 0 C4.37424026 3.11057085 6.92735654 6.78206963 8.625 11.875 C9.38867027 18.3348993 8.46238737 22.65465809 4.625 27.875 C4.22796875 28.44605469 3.8309375 29.01710937 3.421875 29.60546875 C1.66045951 31.9521647 0.19088413 33.64864635 -2.5625 34.75 C-3.490625 34.79125 -4.41875 34.8325 -5.375 34.875 C-6.13167969 34.93558594 -6.88835937 34.99617188 -7.66796875 35.05859375 C-14.86059904 35.41768119 -18.76148079 33.90569353 -24.3125 29.25 C-25.375 27.875 -25.375 27.875 -25.375 25.875 C-32.965 25.875 -40.555 25.875 -48.375 25.875 C-48.375 25.545 -48.375 25.215 -48.375 24.875 C-41.445 24.875 -34.515 24.875 -27.375 24.875 C-27.705 23.555 -28.035 22.235 -28.375 20.875 C-28.29064321 18.62185746 -28.13960801 16.37064461 -27.9375 14.125 C-27.83566406 12.95453125 -27.73382813 11.7840625 -27.62890625 10.578125 C-27.54511719 9.68609375 -27.46132812 8.7940625 -27.375 7.875 C-28.035 7.545 -28.695 7.215 -29.375 6.875 C-28.055 6.875 -26.735 6.875 -25.375 6.875 C-25.148125 6.2975 -24.92125 5.72 -24.6875 5.125 C-22.76647079 1.83180706 -20.19174217 -0.55109191 -16.5078125 -1.71484375 C-10.6528688 -2.84079446 -5.2658544 -3.07667898 0 0 Z " fill="#1C2E9F" transform="translate(158.375,154.125)"/>
<path d="M0 0 C3.07794158 2.21207301 5.40867175 4.67150046 7.5625 7.8125 C6.90507813 7.88726562 6.24765625 7.96203125 5.5703125 8.0390625 C-7.2972027 9.81749956 -20.44292163 13.77260415 -31.4375 20.8125 C-32.0975 21.1425 -32.7575 21.4725 -33.4375 21.8125 C-34.07879121 15.07894231 -33.3275127 11.30204328 -29.2890625 5.828125 C-22.08400284 -2.01535767 -9.62097329 -5.75814349 0 0 Z " fill="#A9DFFE" transform="translate(77.4375,140.1875)"/>
<path d="M0 0 C2.33944736 0.28730055 4.6739143 0.61936779 7 1 C7.20086443 4.71599191 7.1519437 5.77208445 5 9 C8.3 8.67 11.6 8.34 15 8 C13.82426513 12.40900576 12.94329225 14.63402465 9 17 C8.319375 17.556875 7.63875 18.11375 6.9375 18.6875 C2.50162659 20.66948599 -2.2145619 20.78601399 -7 20 C-9 17 -9 17 -8.9375 13.5625 C-7.81392961 9.29293251 -6.47166047 8.54023936 -3 6 C-1.73152315 3.41501488 -1.73152315 3.41501488 -1 1 C-0.67 0.67 -0.34 0.34 0 0 Z " fill="#F0F1F3" transform="translate(92,146)"/>
<path d="M0 0 C-0.42092141 4.77044267 -2.52975221 7.84915312 -6 11 C-10.90028321 14.53909343 -15.5860534 15.63948706 -21.59375 15.3984375 C-25.4473735 14.76033751 -27.84274606 13.28397094 -31 11 C-31.33 10.34 -31.66 9.68 -32 9 C-30.99582031 8.76925781 -29.99164063 8.53851563 -28.95703125 8.30078125 C-20.86856055 6.38919574 -13.2602718 4.15484346 -5.57421875 0.953125 C-3 0 -3 0 0 0 Z " fill="#A1A2A9" transform="translate(83,158)"/>
<path d="M0 0 C2.97 0.495 2.97 0.495 6 1 C5.67 1.99 5.34 2.98 5 4 C4.01 4 3.02 4 2 4 C2 5.65 2 7.3 2 9 C3.98 8.67 5.96 8.34 8 8 C8 7.01 8 6.02 8 5 C9.725227 4.32320342 11.45538939 3.65898 13.1875 3 C14.63189453 2.443125 14.63189453 2.443125 16.10546875 1.875 C18.92182358 1.02363228 21.08164439 0.82927353 24 1 C24 1.99 24 2.98 24 4 C24.86625 3.4740625 24.86625 3.4740625 25.75 2.9375 C28 2 28 2 30.0625 2.125 C32.65382863 3.29527745 33.64912903 4.51155347 35 7 C34.6875 9.25 34.6875 9.25 34 11 C33.01 10.67 32.02 10.34 31 10 C30.3125 7.9375 30.3125 7.9375 30 6 C30 7.32 30 8.64 30 10 C30 11.32 30 12.64 30 14 C28.68 13.67 27.36 13.34 26 13 C25.34 10.36 24.68 7.72 24 5 C23.33468262 5.21205078 22.66936523 5.42410156 21.98388672 5.64257812 C18.95032471 6.6039368 15.91278226 7.55206554 12.875 8.5 C11.82828125 8.83386719 10.7815625 9.16773438 9.703125 9.51171875 C8.68476562 9.82753906 7.66640625 10.14335937 6.6171875 10.46875 C5.68503418 10.76201172 4.75288086 11.05527344 3.79248047 11.35742188 C0.77817804 12.05104349 -1.91731053 12.11137459 -5 12 C-4.34 11.67 -3.68 11.34 -3 11 C-2.67 10.01 -2.34 9.02 -2 8 C-1.34 8 -0.68 8 0 8 C0 5.36 0 2.72 0 0 Z " fill="#202862" transform="translate(100,144)"/>
<path d="M0 0 C2.14418558 3.21627837 2.67582137 5.19090105 3 9 C2.34 9.66 1.68 10.32 1 11 C-1.6015625 10.9765625 -1.6015625 10.9765625 -4.625 10.625 C-5.62789062 10.51414063 -6.63078125 10.40328125 -7.6640625 10.2890625 C-8.82035156 10.14597656 -8.82035156 10.14597656 -10 10 C-7.69 10.66 -5.38 11.32 -3 12 C-5 14 -5 14 -7.71484375 14.046875 C-9.31005859 13.89992187 -9.31005859 13.89992187 -10.9375 13.75 C-12.52884766 13.61851562 -12.52884766 13.61851562 -14.15234375 13.484375 C-17 13 -17 13 -20 11 C-18.36853812 6.75819911 -17.37148408 4.66467175 -13.203125 2.64453125 C-8.63941586 1.10288804 -4.84246863 0 0 0 Z " fill="#5164EF" transform="translate(124,149)"/>
<path d="M0 0 C2.27141109 0.11402064 4.54214552 0.24158505 6.8125 0.375 C8.07707031 0.44460937 9.34164062 0.51421875 10.64453125 0.5859375 C14 1 14 1 17 3 C15.35 3 13.7 3 12 3 C12.99 4.65 13.98 6.3 15 8 C13.88625 8.268125 12.7725 8.53625 11.625 8.8125 C7.78159049 9.65809019 7.78159049 9.65809019 6 13 C4.68 12.67 3.36 12.34 2 12 C2.33 11.01 2.66 10.02 3 9 C4.32 9 5.64 9 7 9 C7 8.01 7 7.02 7 6 C6.07380859 6.03480469 6.07380859 6.03480469 5.12890625 6.0703125 C-0.87882303 6.19833108 -6.20249382 5.56840747 -12 4 C-12 3.67 -12 3.34 -12 3 C-5.07 3.33 1.86 3.66 9 4 C9 3.67 9 3.34 9 3 C6.03 2.34 3.06 1.68 0 1 C0 0.67 0 0.34 0 0 Z " fill="#0B0E22" transform="translate(111,158)"/>
<path d="M0 0 C2.97 0.495 2.97 0.495 6 1 C5.67 1.99 5.34 2.98 5 4 C4.01 4 3.02 4 2 4 C2 5.65 2 7.3 2 9 C3.98 8.67 5.96 8.34 8 8 C8.33 7.01 8.66 6.02 9 5 C12.3 4.67 15.6 4.34 19 4 C18.01 4.495 18.01 4.495 17 5 C17 5.66 17 6.32 17 7 C14.46148538 7.84416163 11.91989146 8.67547299 9.375 9.5 C8.66214844 9.73847656 7.94929688 9.97695312 7.21484375 10.22265625 C3.00693976 11.57381808 -0.52236798 12.28250044 -5 12 C-4.34 11.67 -3.68 11.34 -3 11 C-2.67 10.01 -2.34 9.02 -2 8 C-1.34 8 -0.68 8 0 8 C0 5.36 0 2.72 0 0 Z " fill="#58609C" transform="translate(100,144)"/>
<path d="M0 0 C0.64517578 0.23396484 1.29035156 0.46792969 1.95507812 0.70898438 C3.53371219 1.28197007 5.11077026 1.85929464 6.6875 2.4375 C4.41385823 4.86749536 3.00476155 5.86555835 -0.3125 6.4375 C-0.3125 5.7775 -0.3125 5.1175 -0.3125 4.4375 C-1.23482422 4.13005859 -1.23482422 4.13005859 -2.17578125 3.81640625 C-5.5546875 2.69010417 -8.93359375 1.56380208 -12.3125 0.4375 C-14.64256911 0.08206573 -16.97577016 -0.2538753 -19.3125 -0.5625 C-19.3125 -0.8925 -19.3125 -1.2225 -19.3125 -1.5625 C-11.69925378 -4.10024874 -7.3342598 -2.69653012 0 0 Z " fill="#060C33" transform="translate(92.3125,174.5625)"/>
<path d="M0 0 C0.75 1.6875 0.75 1.6875 1 4 C-0.75 6.75 -0.75 6.75 -3 9 C-3.99 9 -4.98 9 -6 9 C-6 7.68 -6 6.36 -6 5 C-7.65 5.66 -9.3 6.32 -11 7 C-11.33 5.68 -11.66 4.36 -12 3 C-4.71428571 -1.71428571 -4.71428571 -1.71428571 0 0 Z " fill="#020723" transform="translate(104,178)"/>
<path d="M0 0 C0.02705729 1.77074917 0.04642195 3.54161711 0.0625 5.3125 C0.07410156 6.29863281 0.08570312 7.28476563 0.09765625 8.30078125 C0 11 0 11 -1 14 C-2.98 14.33 -4.96 14.66 -7 15 C-7 13.35 -7 11.7 -7 10 C-6.01 9.67 -5.02 9.34 -4 9 C-3.67 8.34 -3.34 7.68 -3 7 C-3.99 7 -4.98 7 -6 7 C-6 5.02 -6 3.04 -6 1 C-4 0 -4 0 0 0 Z " fill="#E5E6ED" transform="translate(109,138)"/>
<path d="M0 0 C3.875 1.75 3.875 1.75 5 4 C6.98 3.67 8.96 3.34 11 3 C10 6 10 6 8 7 C8.33 9.31 8.66 11.62 9 14 C8.01 14 7.02 14 6 14 C5.34 13.01 4.68 12.02 4 11 C0.91634129 10.7497843 0.91634129 10.7497843 -2 11 C-1.67 10.01 -1.34 9.02 -1 8 C-0.34 7.67 0.32 7.34 1 7 C0.67 4.69 0.34 2.38 0 0 Z " fill="#E2E2E6" transform="translate(31,173)"/>
<path d="M0 0 C0.99 0 1.98 0 3 0 C2.67 2.31 2.34 4.62 2 7 C2.99 7.66 3.98 8.32 5 9 C5 9.66 5 10.32 5 11 C2.69 10.67 0.38 10.34 -2 10 C-2.33 11.32 -2.66 12.64 -3 14 C-3.99 14 -4.98 14 -6 14 C-5.42415568 11.61435923 -4.77772405 9.33317216 -4 7 C-5.32 6.34 -6.64 5.68 -8 5 C-8 4.34 -8 3.68 -8 3 C-5.03 3.495 -5.03 3.495 -2 4 C-1.34 2.68 -0.68 1.36 0 0 Z " fill="#E0E1E5" transform="translate(222,173)"/>
<path d="M0 0 C1.32 0.33 2.64 0.66 4 1 C4 2.32 4 3.64 4 5 C3.01 5.33 2.02 5.66 1 6 C0.67 6.99 0.34 7.98 0 9 C0.99 9.33 1.98 9.66 3 10 C2.34 10 1.68 10 1 10 C1 11.32 1 12.64 1 14 C0.01 13.67 -0.98 13.34 -2 13 C-4.14255793 13.38932856 -4.14255793 13.38932856 -6 14 C-6 11.36 -6 8.72 -6 6 C-4.68 6 -3.36 6 -2 6 C-1.34 4.02 -0.68 2.04 0 0 Z " fill="#5A6BE4" transform="translate(114,117)"/>
<path d="M0 0 C1.45823212 -0.0270043 2.91660675 -0.04639787 4.375 -0.0625 C5.18710938 -0.07410156 5.99921875 -0.08570312 6.8359375 -0.09765625 C9 0 9 0 11 1 C10.125 7.75 10.125 7.75 9 10 C7.68 10 6.36 10 5 10 C5.33 8.68 5.66 7.36 6 6 C6.99 6 7.98 6 9 6 C8.73323796 4.01508358 8.73323796 4.01508358 8 2 C7.01 1.67 6.02 1.34 5 1 C4.34 3.31 3.68 5.62 3 8 C1.68 7.67 0.36 7.34 -1 7 C-0.67 4.69 -0.34 2.38 0 0 Z " fill="#1C2351" transform="translate(109,116)"/>
<path d="M0 0 C0.99 0.33 1.98 0.66 3 1 C2.01 2.485 2.01 2.485 1 4 C1.33820153 6.01954441 1.33820153 6.01954441 2 8 C2 8.99 2 9.98 2 11 C-0.475 10.01 -0.475 10.01 -3 9 C-3.45375 9.495 -3.9075 9.99 -4.375 10.5 C-6 12 -6 12 -8 12 C-7.835 11.4225 -7.67 10.845 -7.5 10.25 C-6.74126854 6.83570843 -6.89810487 4.30568539 -8 1 C-6.02 1.66 -4.04 2.32 -2 3 C-1.34 2.01 -0.68 1.02 0 0 Z " fill="#DEDFE3" transform="translate(205,68)"/>
<path d="M0 0 C0.66 0 1.32 0 2 0 C2.66 0.99 3.32 1.98 4 3 C5.98 2.34 7.96 1.68 10 1 C9.34 2.98 8.68 4.96 8 7 C8.66 7.66 9.32 8.32 10 9 C10 9.99 10 10.98 10 12 C8.68 11.34 7.36 10.68 6 10 C6 9.34 6 8.68 6 8 C4.02 8.99 2.04 9.98 0 11 C0 8 0 8 0.625 6 C1.29886581 3.6915506 1.29886581 3.6915506 -1 1 C-0.67 0.67 -0.34 0.34 0 0 Z " fill="#E1E1E5" transform="translate(49,68)"/>
<path d="M0 0 C0 1.65 0 3.3 0 5 C-0.99 5 -1.98 5 -3 5 C-3 7.64 -3 10.28 -3 13 C-3.33 13 -3.66 13 -4 13 C-4 11.35 -4 9.7 -4 8 C-5.65 8 -7.3 8 -9 8 C-9 7.34 -9 6.68 -9 6 C-9.99 5.67 -10.98 5.34 -12 5 C-9.52000368 3.34666912 -7.62155594 2.37835438 -4.875 1.375 C-4.17117187 1.11460937 -3.46734375 0.85421875 -2.7421875 0.5859375 C-1 0 -1 0 0 0 Z " fill="#5164EC" transform="translate(103,139)"/>
<path d="M0 0 C1.32 0 2.64 0 4 0 C4 1.32 4 2.64 4 4 C2.9275 4.185625 1.855 4.37125 0.75 4.5625 C-4.44344856 5.83077532 -8.65683148 8.553112 -13.16796875 11.34375 C-15.73535792 12.84523001 -18.21239536 13.98076613 -21 15 C-16.39242307 9.56964148 -10.34118977 6.13446275 -4 3 C-3.01 3 -2.02 3 -1 3 C-0.67 2.01 -0.34 1.02 0 0 Z " fill="#5E1A40" transform="translate(84,122)"/>
<path d="M0 0 C0 0.66 0 1.32 0 2 C-3.59865208 3.36915412 -7.20468119 4.71770631 -10.8125 6.0625 C-11.83666016 6.45244141 -12.86082031 6.84238281 -13.91601562 7.24414062 C-14.89892578 7.60830078 -15.88183594 7.97246094 -16.89453125 8.34765625 C-17.80050049 8.68804932 -18.70646973 9.02844238 -19.63989258 9.37915039 C-22 10 -22 10 -25 9 C-4.26213592 0 -4.26213592 0 0 0 Z " fill="#191D3C" transform="translate(113,134)"/>
<path d="M0 0 C3 1 3 1 4.6875 3.8125 C6.71289757 8.92929387 6.63176123 14.59310842 6 20 C5.34 20.66 4.68 21.32 4 22 C3.96261719 21.16597656 3.92523438 20.33195312 3.88671875 19.47265625 C3.47618784 12.4453331 2.55765031 6.56092905 0 0 Z " fill="#172265" transform="translate(212,54)"/>
<path d="M0 0 C2.97 0.495 2.97 0.495 6 1 C5.67 1.99 5.34 2.98 5 4 C3.68 4 2.36 4 1 4 C1 6.64 1 9.28 1 12 C-0.98 12 -2.96 12 -5 12 C-4.34 11.67 -3.68 11.34 -3 11 C-2.67 10.01 -2.34 9.02 -2 8 C-1.34 8 -0.68 8 0 8 C0 5.36 0 2.72 0 0 Z " fill="#1E1E1E" transform="translate(100,144)"/>
<path d="M0 0 C0.99 0.33 1.98 0.66 3 1 C1.68 3.31 0.36 5.62 -1 8 C-3.31 7.67 -5.62 7.34 -8 7 C-3.04087193 1.86376022 -3.04087193 1.86376022 0 0 Z " fill="#131D59" transform="translate(142,67)"/>
<path d="M0 0 C-0.33 2.64 -0.66 5.28 -1 8 C-2.65 7.67 -4.3 7.34 -6 7 C-6 5.02 -6 3.04 -6 1 C-4 0 -4 0 0 0 Z " fill="#ECEDF6" transform="translate(109,138)"/>
<path d="M0 0 C6.6 0.33 13.2 0.66 20 1 C20 1.99 20 2.98 20 4 C17.22782133 3.71828671 14.45769759 3.42508608 11.6875 3.125 C10.90181641 3.04636719 10.11613281 2.96773437 9.30664062 2.88671875 C8.1706543 2.76103516 8.1706543 2.76103516 7.01171875 2.6328125 C6.31522217 2.55949707 5.61872559 2.48618164 4.90112305 2.41064453 C3 2 3 2 0 0 Z " fill="#22295B" transform="translate(99,161)"/>
<path d="M0 0 C2.62187494 1.04874998 3.79371361 1.64931313 5.25 4.125 C5.4975 4.74375 5.745 5.3625 6 6 C5.01 6 4.02 6 3 6 C3 6.99 3 7.98 3 9 C3.66 9 4.32 9 5 9 C4.67 9.66 4.34 10.32 4 11 C2.02 11 0.04 11 -2 11 C-1.67 10.01 -1.34 9.02 -1 8 C-0.34 7.67 0.32 7.34 1 7 C0.67 4.69 0.34 2.38 0 0 Z " fill="#CDCED5" transform="translate(31,173)"/>
<path d="M0 0 C0.66 0 1.32 0 2 0 C1.835 0.763125 1.67 1.52625 1.5 2.3125 C0.90854604 5.03596236 0.90854604 5.03596236 1 8 C0.01 7.67 -0.98 7.34 -2 7 C-2.33 7.66 -2.66 8.32 -3 9 C-3.66 9 -4.32 9 -5 9 C-4.67 7.35 -4.34 5.7 -4 4 C-4.66 3.67 -5.32 3.34 -6 3 C-6 2.34 -6 1.68 -6 1 C-3.03 1.495 -3.03 1.495 0 2 C0 1.34 0 0.68 0 0 Z " fill="#CDCED5" transform="translate(48,204)"/>
<path d="M0 0 C0.66 0.66 1.32 1.32 2 2 C1.4740625 2.8353125 1.4740625 2.8353125 0.9375 3.6875 C-0.21845993 6.53886783 0.19032562 8.08517222 1 11 C-0.32 10.67 -1.64 10.34 -3 10 C-3.75 7.25 -3.75 7.25 -4 4 C-2.0625 1.625 -2.0625 1.625 0 0 Z " fill="#2C3366" transform="translate(129,147)"/>
<path d="M0 0 C0.66 0 1.32 0 2 0 C2.33 0.66 2.66 1.32 3 2 C4.65 1.67 6.3 1.34 8 1 C8 1.66 8 2.32 8 3 C7.34 3.66 6.68 4.32 6 5 C6.33 5.99 6.66 6.98 7 8 C6.236875 7.814375 5.47375 7.62875 4.6875 7.4375 C1.91032625 6.77180827 1.91032625 6.77180827 -1 8 C-1 7.34 -1 6.68 -1 6 C-0.34 5.67 0.32 5.34 1 5 C0.67 3.35 0.34 1.7 0 0 Z " fill="#D2D3D9" transform="translate(206,204)"/>
<path d="M0 0 C0.99 0 1.98 0 3 0 C2.67 2.31 2.34 4.62 2 7 C2.99 7.66 3.98 8.32 5 9 C5 9.66 5 10.32 5 11 C2.03 10.505 2.03 10.505 -1 10 C-0.67 9.34 -0.34 8.68 0 8 C-0.83333333 5.83333333 -0.83333333 5.83333333 -3 5 C-1.6875 2.5 -1.6875 2.5 0 0 Z " fill="#CFD0D6" transform="translate(222,173)"/>
<path d="M0 0 C2.73044194 1.07562864 3.67097665 2.24916752 5.0625 4.8125 C4.75 7.0625 4.75 7.0625 4.0625 8.8125 C3.0725 8.4825 2.0825 8.1525 1.0625 7.8125 C0.7325 5.8325 0.4025 3.8525 0.0625 1.8125 C-3.0120356 2.5888932 -3.0120356 2.5888932 -4.9375 4.8125 C-4.5625 2.875 -4.5625 2.875 -3.9375 0.8125 C-1.9375 -0.1875 -1.9375 -0.1875 0 0 Z " fill="#24252E" transform="translate(129.9375,146.1875)"/>
<path d="M0 0 C0.66 0 1.32 0 2 0 C0.37940026 3.54506192 -1.72629052 6.59021257 -4 9.75 C-4.70125 10.73484375 -5.4025 11.7196875 -6.125 12.734375 C-6.74375 13.48203125 -7.3625 14.2296875 -8 15 C-8.66 15 -9.32 15 -10 15 C-8.37940026 11.45493808 -6.27370948 8.40978743 -4 5.25 C-3.29875 4.26515625 -2.5975 3.2803125 -1.875 2.265625 C-0.946875 1.14414063 -0.946875 1.14414063 0 0 Z " fill="#2B3999" transform="translate(196,117)"/>
<path d="M0 0 C0.66 0 1.32 0 2 0 C2.33 0.66 2.66 1.32 3 2 C4.32 2 5.64 2 7 2 C7 2.66 7 3.32 7 4 C6.34 4 5.68 4 5 4 C5 5.65 5 7.3 5 9 C4.34 8.67 3.68 8.34 3 8 C3 7.34 3 6.68 3 6 C1.35 6.33 -0.3 6.66 -2 7 C-2 6.34 -2 5.68 -2 5 C-1.01 5 -0.02 5 1 5 C0.67 3.35 0.34 1.7 0 0 Z " fill="#CBCCD3" transform="translate(216,46)"/>
<path d="M0 0 C0.66 0 1.32 0 2 0 C1.67 1.65 1.34 3.3 1 5 C1.99 5 2.98 5 4 5 C4 5.66 4 6.32 4 7 C2.35 6.67 0.7 6.34 -1 6 C-1.33 6.99 -1.66 7.98 -2 9 C-2.33 9 -2.66 9 -3 9 C-3 7.35 -3 5.7 -3 4 C-3.66 4 -4.32 4 -5 4 C-5 3.34 -5 2.68 -5 2 C-3.68 2 -2.36 2 -1 2 C-0.67 1.34 -0.34 0.68 0 0 Z " fill="#CACCD3" transform="translate(38,46)"/>
<path d="M0 0 C0 1.32 0 2.64 0 4 C-1.62580966 3.88601335 -3.25067157 3.75844341 -4.875 3.625 C-5.77992187 3.55539063 -6.68484375 3.48578125 -7.6171875 3.4140625 C-10 3 -10 3 -12 1 C-7.58774263 -0.47075246 -4.51718381 -1.36884358 0 0 Z " fill="#222958" transform="translate(85,172)"/>
<path d="M0 0 C0 0.66 0 1.32 0 2 C-6.93 3.485 -6.93 3.485 -14 5 C-14 4.34 -14 3.68 -14 3 C-9.37428046 0.95924138 -5.06116446 0 0 0 Z " fill="#141D5C" transform="translate(191,47)"/>
<path d="M0 0 C5.67276511 -0.29341888 8.99067246 -0.00559652 14 3 C10.52487282 4.15837573 8.86329714 3.77265943 5.3125 3.0625 C4.31863281 2.86785156 3.32476562 2.67320313 2.30078125 2.47265625 C1.54152344 2.31667969 0.78226563 2.16070312 0 2 C0 1.34 0 0.68 0 0 Z " fill="#151F5F" transform="translate(195,47)"/>
<path d="M0 0 C2.27141109 0.11402064 4.54214552 0.24158505 6.8125 0.375 C8.07707031 0.44460937 9.34164062 0.51421875 10.64453125 0.5859375 C14 1 14 1 17 3 C11.67924257 4.08586886 8.10526486 3.86538524 3 2 C2.01 1.34 1.02 0.68 0 0 Z " fill="#2D367A" transform="translate(111,158)"/>
<path d="M0 0 C0.66 0 1.32 0 2 0 C2 0.99 2 1.98 2 3 C2.66 3 3.32 3 4 3 C4 3.66 4 4.32 4 5 C3.01 5 2.02 5 1 5 C1 5.99 1 6.98 1 8 C0.34 8 -0.32 8 -1 8 C-1 6.68 -1 5.36 -1 4 C-1.66 4 -2.32 4 -3 4 C-3 3.34 -3 2.68 -3 2 C-2.01 2 -1.02 2 0 2 C0 1.34 0 0.68 0 0 Z " fill="#9FA1AE" transform="translate(215,93)"/>
<path d="M0 0 C0.66 0 1.32 0 2 0 C2 0.66 2 1.32 2 2 C2.99 2 3.98 2 5 2 C5 2.66 5 3.32 5 4 C4.34 4 3.68 4 3 4 C3 5.32 3 6.64 3 8 C2.34 8 1.68 8 1 8 C1 7.01 1 6.02 1 5 C0.01 5 -0.98 5 -2 5 C-2 4.34 -2 3.68 -2 3 C-1.34 3 -0.68 3 0 3 C0 2.01 0 1.02 0 0 Z " fill="#9FA1AE" transform="translate(39,93)"/>
<path d="M0 0 C0.66 0 1.32 0 2 0 C1.05944297 5.68046944 0.13782924 9.72424312 -4 14 C-3.00956295 9.16371695 -2.04301154 4.52381127 0 0 Z " fill="#162062" transform="translate(214,81)"/>
<path d="M0 0 C-1.47692308 4.67692308 -1.47692308 4.67692308 -4.125 6.3125 C-5.053125 6.6528125 -5.053125 6.6528125 -6 7 C-6.33 5.68 -6.66 4.36 -7 3 C-2.25 0 -2.25 0 0 0 Z " fill="#000108" transform="translate(99,178)"/>
<path d="M0 0 C0.99 0 1.98 0 3 0 C2.62952882 2.74148672 2.31412056 4.58593199 0.625 6.8125 C-1 8 -1 8 -4 8 C-4 7.01 -4 6.02 -4 5 C-2.68 5 -1.36 5 0 5 C0 3.35 0 1.7 0 0 Z " fill="#000106" transform="translate(102,179)"/>
<path d="M0 0 C1.98 0.495 1.98 0.495 4 1 C4 2.32 4 3.64 4 5 C2.68 5.33 1.36 5.66 0 6 C-1.125 2.25 -1.125 2.25 0 0 Z " fill="#495CE0" transform="translate(114,117)"/>
<path d="M0 0 C0 0.99 0 1.98 0 3 C-4.29 2.67 -8.58 2.34 -13 2 C-13 1.67 -13 1.34 -13 1 C-8.60563789 0.14256349 -4.47427924 -0.08948558 0 0 Z " fill="#4B5DE3" transform="translate(120,160)"/>
<path d="M0 0 C0.66 0 1.32 0 2 0 C0.32598022 3.95677402 -2.13149285 6.84464213 -5 10 C-5.66 10 -6.32 10 -7 10 C-5.32598022 6.04322598 -2.86850715 3.15535787 0 0 Z " fill="#2B3999" transform="translate(182,135)"/>
<path d="M0 0 C1.65 0.33 3.3 0.66 5 1 C5 3.31 5 5.62 5 8 C4.67 8 4.34 8 4 8 C4 6.35 4 4.7 4 3 C2.35 3 0.7 3 -1 3 C-0.67 2.01 -0.34 1.02 0 0 Z " fill="#888DB4" transform="translate(95,144)"/>
<path d="M0 0 C-1.23263349 3.69790046 -2.20052451 3.9354846 -5.5625 5.6875 C-6.80193359 6.34298828 -6.80193359 6.34298828 -8.06640625 7.01171875 C-8.70449219 7.33785156 -9.34257813 7.66398438 -10 8 C-8.89904638 4.69713914 -8.3103981 4.21489099 -5.5625 2.3125 C-4.94503906 1.87550781 -4.32757813 1.43851563 -3.69140625 0.98828125 C-2 0 -2 0 0 0 Z " fill="#172164" transform="translate(131,183)"/>
<path d="M0 0 C-1.15173355 2.46800047 -2.04783565 4.04783565 -4 6 C-5.5 4.625 -5.5 4.625 -7 3 C-7 2.34 -7 1.68 -7 1 C-4.53721199 -0.231394 -2.7204945 -0.07159196 0 0 Z " fill="#D6D8E3" transform="translate(133,160)"/>
<path d="M0 0 C2.97 0.495 2.97 0.495 6 1 C5.67 1.99 5.34 2.98 5 4 C3.35 4 1.7 4 0 4 C0 2.68 0 1.36 0 0 Z " fill="#181924" transform="translate(100,144)"/>
</svg>
